<svg width="70" height="71" viewBox="0 0 70 71" fill="none" xmlns="http://www.w3.org/2000/svg">
<ellipse cx="34.9999" cy="35.5001" rx="35" ry="35.4999" fill="#08E8E8"/>
<path d="M46.7928 24.1998H41.2615V22.3164C41.2615 20.2447 39.6021 18.5497 37.574 18.5497H30.199C28.1709 18.5497 26.5115 20.2447 26.5115 22.3164V24.1998H20.9803C17.8459 24.1998 15.449 26.6482 15.449 29.8499V46.8004C15.449 50.0021 17.8459 52.4505 20.9803 52.4505H46.7928C49.9271 52.4505 52.324 50.0021 52.324 46.8004V29.8499C52.324 26.6482 49.9271 24.1998 46.7928 24.1998ZM30.199 22.3164H37.574V24.1998H30.199V22.3164ZM48.6365 46.8004C48.6365 47.9304 47.899 48.6837 46.7928 48.6837H20.9803C19.874 48.6837 19.1365 47.9304 19.1365 46.8004V36.2534L27.8021 39.2668H39.4178C39.6021 39.2668 39.7865 39.2668 39.9709 39.0785L48.6365 36.0651V46.8004Z" fill="white"/>
</svg>
