<svg width="70" height="71" viewBox="0 0 70 71" fill="none" xmlns="http://www.w3.org/2000/svg">
<ellipse cx="34.9995" cy="35.5002" rx="34.9995" ry="35.5" fill="#08E8E8"/>
<path d="M39.6188 37.4976C39.6188 41.9088 43.1447 45.4851 47.4937 45.4851C51.8428 45.4851 55.3686 41.9081 55.3686 37.4976H54.1961L49.0827 24.2937C49.4039 24.0476 49.6646 23.7295 49.8444 23.3641C50.0241 22.9988 50.118 22.5962 50.1187 22.1878C50.1187 20.7181 48.9427 19.5253 47.4937 19.5253C47.1101 19.5253 46.7489 19.6134 46.4206 19.7625C45.8849 19.551 45.3508 19.3354 44.8184 19.1157C42.8108 18.2807 40.4749 17.3194 38.0425 16.7656C37.7577 16.0113 37.2542 15.3624 36.5984 14.9044C35.9425 14.4464 35.1652 14.2009 34.3689 14.2003C33.5726 14.201 32.7952 14.4466 32.1393 14.9047C31.4834 15.3628 30.98 16.0119 30.6954 16.7663C28.2622 17.3194 25.9263 18.2807 23.9188 19.1164C23.4617 19.3067 22.8184 19.5637 22.3165 19.7632C21.9797 19.6075 21.6142 19.5264 21.2441 19.5253C20.5479 19.5253 19.8802 19.8059 19.388 20.3052C18.8957 20.8045 18.6191 21.4817 18.6191 22.1878C18.62 22.596 18.7139 22.9985 18.8935 23.3638C19.0731 23.7291 19.3335 24.0474 19.6544 24.2937L14.541 37.4976H13.3692C13.3692 41.9088 16.8951 45.4851 21.2441 45.4851C25.5931 45.4851 29.119 41.9088 29.119 37.4976H27.9465L22.8331 24.2944C23.1541 24.048 23.4147 23.7297 23.5944 23.3642C23.7741 22.9988 23.8681 22.5962 23.8691 22.1878C23.8691 22.1261 23.8544 22.0679 23.8509 22.0068L24.5053 21.7377C26.347 20.9702 28.4799 20.0877 30.6688 19.5488C30.8667 20.1042 31.1836 20.6081 31.5966 21.0244C32.0095 21.4408 32.5084 21.759 33.0571 21.9564V26.0261H32.2521V38.8288H31.3772V45.0974C27.0351 45.9146 23.8691 48.4593 23.8691 51.4753H22.5566V54.1378H19.9316V56.8003H48.8062V54.1378H46.1812V51.4753H44.8688C44.8688 48.4593 41.7013 45.9146 37.3614 45.0974V38.8288H36.4864V26.0254H35.6814V21.9557C36.23 21.7582 36.7287 21.4399 37.1415 21.0236C37.5544 20.6073 37.8711 20.1034 38.0691 19.5481C40.2586 20.087 42.3901 20.9695 44.2332 21.737C44.4572 21.8307 44.6686 21.9166 44.887 22.0068C44.8828 22.0679 44.8688 22.1261 44.8688 22.1878C44.8697 22.596 44.9636 22.9985 45.1431 23.3638C45.3227 23.7291 45.5831 24.0474 45.904 24.2937L40.7906 37.4969H39.6188V37.4976ZM21.2441 20.8566C21.419 20.8525 21.593 20.884 21.7558 20.9491C21.9186 21.0143 22.067 21.1117 22.1921 21.2358C22.3172 21.3599 22.4166 21.5081 22.4845 21.6717C22.5524 21.8353 22.5873 22.0111 22.5872 22.1886C22.5872 22.3661 22.5522 22.5418 22.4842 22.7054C22.4163 22.8689 22.3168 23.0171 22.1916 23.1411C22.0664 23.2651 21.918 23.3625 21.7552 23.4276C21.5923 23.4926 21.4183 23.524 21.2434 23.5198C20.9005 23.5117 20.5743 23.3678 20.3346 23.1189C20.0949 22.8699 19.9608 22.5358 19.9609 22.1879C19.961 21.8399 20.0953 21.5058 20.3351 21.2571C20.5749 21.0083 20.9012 20.8645 21.2441 20.8566ZM26.5913 37.4976H15.8948L20.8101 24.8063C20.9522 24.8305 21.0957 24.8503 21.2441 24.8503C21.3925 24.8503 21.5353 24.8305 21.6767 24.8056L26.5913 37.4976ZM47.4937 20.8566C47.6687 20.8525 47.8427 20.884 48.0055 20.9491C48.1683 21.0143 48.3166 21.1117 48.4417 21.2358C48.5669 21.3599 48.6663 21.5081 48.7341 21.6717C48.802 21.8353 48.8369 22.0111 48.8369 22.1886C48.8368 22.3661 48.8018 22.5418 48.7339 22.7054C48.6659 22.8689 48.5664 23.0171 48.4412 23.1411C48.316 23.2651 48.1677 23.3625 48.0048 23.4276C47.842 23.4926 47.668 23.524 47.493 23.5198C47.1501 23.5117 46.8239 23.3678 46.5842 23.1189C46.3446 22.8699 46.2104 22.5358 46.2105 22.1879C46.2106 21.8399 46.3449 21.5058 46.5847 21.2571C46.8245 21.0083 47.1508 20.8645 47.4937 20.8566ZM47.0604 24.8063C47.2034 24.8333 47.3483 24.848 47.4937 24.8503C47.6414 24.8503 47.7849 24.8305 47.9263 24.8056L52.841 37.4969H42.1437L47.0604 24.8063Z" fill="white"/>
</svg>
