<svg width="39" height="39" viewBox="0 0 39 39" fill="none" xmlns="http://www.w3.org/2000/svg">
<rect width="38.8354" height="39" rx="19.4177" fill="#08E8E8"/>
<path d="M16.6648 22.908L15.1412 21.3676C15.0278 21.2562 14.876 21.194 14.718 21.194C14.56 21.194 14.4082 21.2562 14.2948 21.3676C14.1847 21.4822 14.1231 21.6357 14.1231 21.7955C14.1231 21.9552 14.1847 22.1087 14.2948 22.2234L15.8183 23.7638C16.0474 23.9953 16.4258 23.9953 16.6648 23.7638C16.9037 23.5322 16.9037 23.1496 16.6648 22.908ZM13.1397 23.4013L14.6632 24.9417C14.8923 25.1733 14.8923 25.5559 14.6632 25.7975C14.5499 25.9088 14.3981 25.9711 14.24 25.9711C14.082 25.9711 13.9302 25.9088 13.8168 25.7975L12.2933 24.2571C12.1832 24.1425 12.1216 23.989 12.1216 23.8292C12.1216 23.6694 12.1832 23.5159 12.2933 23.4013C12.4066 23.29 12.5585 23.2277 12.7165 23.2277C12.8745 23.2277 13.0263 23.29 13.1397 23.4013Z" fill="#242540"/>
<path d="M30.3568 5.71174C30.3217 5.62823 30.2707 5.55257 30.2066 5.48909C30.1425 5.42562 30.0666 5.3756 29.9833 5.34191C29.9 5.30822 29.8109 5.29152 29.7212 5.29279C29.6315 5.29406 29.5429 5.31326 29.4606 5.34929C29.1121 5.50031 28.9527 5.90303 29.1021 6.25542C29.1718 6.41651 29.2913 6.52725 29.4407 6.59773C29.5701 6.65814 29.6797 6.74875 29.7394 6.87964L29.8987 7.25014L28.9697 7.68307L28.8133 7.32263C28.7602 7.19089 28.7567 7.04404 28.8034 6.90984C28.8432 6.76889 28.8432 6.59773 28.7835 6.43664C28.7484 6.35314 28.6974 6.27747 28.6333 6.21399C28.5692 6.15052 28.4933 6.1005 28.41 6.06681C28.3267 6.03312 28.2376 6.01643 28.1479 6.01769C28.0582 6.01896 27.9696 6.03816 27.8873 6.07419C27.5387 6.22521 27.3794 6.62794 27.5288 6.98032C27.5985 7.14141 27.718 7.25216 27.8673 7.32263C27.9968 7.38304 28.1063 7.47365 28.1661 7.60454L28.3294 7.98209L27.3904 8.42005L27.231 8.04753C27.2023 7.98285 27.1867 7.91303 27.185 7.84215C27.1833 7.77128 27.1955 7.70077 27.2211 7.63474C27.2741 7.48017 27.267 7.311 27.2012 7.16154C27.1661 7.07804 27.1151 7.00237 27.051 6.9389C26.9869 6.87542 26.911 6.8254 26.8277 6.79171C26.7444 6.75802 26.6553 6.74133 26.5656 6.74259C26.4759 6.74386 26.3873 6.76306 26.305 6.79909C25.9564 6.95011 25.7971 7.35284 25.9465 7.70522C26.0162 7.86631 26.1357 7.97706 26.285 8.04753C26.4145 8.10794 26.524 8.19856 26.5838 8.32944L26.7501 8.71807L26.3737 8.89325C26.2766 8.94869 26.1924 9.0246 26.1269 9.11585C26.0615 9.20709 26.0162 9.31152 25.9942 9.42204C25.9721 9.53256 25.9739 9.64657 25.9994 9.75633C26.0248 9.86609 26.0734 9.96902 26.1417 10.0581L26.065 9.98061L17.5431 18.5969C17.3061 17.9882 17.2485 17.3233 17.3771 16.6823C17.5058 16.0412 17.8152 15.4516 18.268 14.9844C18.8655 14.3703 18.8954 13.3836 18.2979 12.7695C17.7004 12.1553 16.7146 12.1553 16.1171 12.7594C15.1911 13.6957 14.6035 14.8536 14.3646 16.0718C14.0957 17.4411 12.9505 18.4378 11.5764 18.5687C9.92337 18.7197 8.32017 19.4345 7.06548 20.7132C4.24743 23.5926 4.28726 28.3347 7.16506 31.1538C10.003 33.9426 14.5438 33.9124 17.3519 31.0732C18.5565 29.848 19.2967 28.2336 19.443 26.5124C19.5017 25.8387 19.7752 25.2025 20.2223 24.6995C20.6695 24.1965 21.2662 23.854 21.9225 23.7235C22.4702 23.6128 23.0079 23.4215 23.5257 23.1597C24.2825 22.7771 24.5912 21.8408 24.2128 21.0756C24.03 20.7077 23.7104 20.4281 23.3241 20.2979C22.9378 20.1677 22.5162 20.1975 22.1516 20.3809C21.7288 20.5966 21.2654 20.7185 20.7922 20.7384C20.3191 20.7584 19.8473 20.676 19.4082 20.4967L27.9341 11.8774C28.0157 11.9484 28.1111 12.0015 28.2141 12.0334C28.317 12.0652 28.4254 12.0751 28.5324 12.0624C28.6394 12.0497 28.7426 12.0148 28.8355 11.9597C28.9284 11.9046 29.009 11.8307 29.0722 11.7425L30.1477 9.9202C30.2672 9.71884 30.5062 9.62822 30.7252 9.71884C31.2928 9.94033 31.96 9.81952 32.3981 9.33625C32.9359 8.7523 32.9458 7.83611 32.4181 7.25216C31.9202 6.69942 31.2171 6.67022 30.534 6.95716L30.3767 6.6078C30.3236 6.47606 30.3201 6.32921 30.3668 6.19501C30.4265 6.04399 30.4265 5.87283 30.3568 5.71174ZM16.137 18.5787C16.4418 18.7569 16.6608 19.055 16.7385 19.4104L16.5752 19.5755C16.3262 19.8272 16.3262 20.2299 16.5752 20.4715L17.561 21.4683C17.804 21.7139 18.1893 21.72 18.4303 21.4864C18.7191 21.5649 19.1622 21.6284 19.449 21.6696L19.6522 21.6998C19.6752 21.7045 19.6985 21.7078 19.7219 21.7099C19.7448 21.7129 19.7667 21.715 19.7916 21.72L19.8085 21.722C20.0037 21.7442 20.5583 21.8076 21.2056 21.6797C21.2474 21.6727 21.2892 21.6636 21.333 21.6545C21.6985 21.58 22.1247 21.4935 22.3109 22.0321C22.3806 22.2133 22.3208 22.4248 22.0619 22.5959C21.9126 22.6966 21.5441 22.8375 21.3749 22.8778C20.5583 23.0691 19.9808 23.4014 19.443 23.9954C18.7261 24.68 18.2879 25.5056 18.1286 26.4016C18.0091 27.0863 17.8896 27.7608 17.6108 28.3851C17.3121 29.0294 16.9138 29.6134 16.4059 30.1268C15.8284 30.7208 15.1512 31.1638 14.4044 31.4659C13.7073 31.7478 12.9008 31.4155 12.6319 30.7108C12.5722 30.5598 12.5423 30.3886 12.5423 30.2275C12.5453 29.9738 12.605 29.6889 12.6677 29.3898C12.8271 28.6327 13.0043 27.785 12.3332 27.1064L10.0927 24.8411C9.09688 23.8343 9.07696 22.1932 10.0628 21.1662L10.0827 21.1461C10.8694 20.3407 11.905 19.9279 12.9904 19.8876C13.6376 19.8574 14.1953 19.5251 14.504 19.0117C14.7529 18.5989 15.211 18.3774 15.679 18.4277C15.8383 18.4479 15.9976 18.4982 16.137 18.5787ZM12.3132 28.2139C12.4128 28.3146 12.4128 28.4757 12.3033 28.5663L11.2478 29.6335C11.1482 29.7342 10.9889 29.7342 10.8893 29.6335L8.48945 27.2071C8.38987 27.1064 8.38987 26.9453 8.48945 26.8446L9.55494 25.7875C9.65451 25.6868 9.81384 25.6868 9.91342 25.7875L12.3132 28.2139Z" fill="#242540"/>
</svg>
